<svg xmlns="http://www.w3.org/2000/svg" width="276.3185" height="76.3125" viewBox="0 0 276.3185 76.3125">
<g transform="translate(5.15625 5.15625) scale(1.03125)">
<path d="M20 10 H50 A5 5 0 0 1 54 14 V50 A5 5 0 0 1 50 54 H14 A5 5 0 0 1 10 50 V20 Z" fill="none" stroke="#f0ebe2" stroke-width="3" stroke-linejoin="round"></path>
<path d="M22 24 L31 33 L42 25 L46 42 M31 33 L27 46" fill="none" stroke="#d98a3d" stroke-width="1.7" stroke-linecap="round" stroke-linejoin="round"></path><g fill="#d98a3d"><path d="M31 27.6 l1.7 4.3 4.3 1.7 -4.3 1.7 -1.7 4.3 -1.7 -4.3 -4.3 -1.7 4.3 -1.7 z"></path><circle cx="22" cy="24" r="2.2"></circle><circle cx="42" cy="25" r="1.9"></circle><circle cx="46" cy="42" r="1.9"></circle><circle cx="27" cy="46" r="1.8"></circle></g>
</g>
<g transform="translate(91.15625 56.85225)">
<path d="M2.51 0L2.51 -26.6L13.45 -26.6Q15.96 -26.6 17.88 -25.59Q19.8 -24.59 20.88 -22.76Q21.96 -20.94 21.96 -18.43L21.96 -17.9Q21.96 -15.43 20.84 -13.58Q19.72 -11.74 17.8 -10.73Q15.88 -9.73 13.45 -9.73L7.52 -9.73L7.52 0ZM7.52 -14.29L12.96 -14.29Q14.74 -14.29 15.85 -15.28Q16.95 -16.26 16.95 -17.97L16.95 -18.35Q16.95 -20.06 15.85 -21.05Q14.74 -22.04 12.96 -22.04L7.52 -22.04ZM24.85 0L24.85 -26.6L29.64 -26.6L29.64 0ZM40.05 0.53Q38.04 0.53 36.44 -0.17Q34.85 -0.87 33.92 -2.22Q32.98 -3.57 32.98 -5.51Q32.98 -7.45 33.92 -8.76Q34.85 -10.07 36.5 -10.73Q38.15 -11.4 40.28 -11.4L45.45 -11.4L45.45 -12.46Q45.45 -13.79 44.61 -14.65Q43.78 -15.5 41.95 -15.5Q40.17 -15.5 39.29 -14.69Q38.42 -13.87 38.15 -12.58L33.74 -14.06Q34.2 -15.5 35.21 -16.7Q36.21 -17.9 37.91 -18.64Q39.6 -19.38 42.03 -19.38Q45.75 -19.38 47.92 -17.52Q50.08 -15.66 50.08 -12.12L50.08 -5.09Q50.08 -3.95 51.15 -3.95L52.67 -3.95L52.67 0L49.48 0Q48.07 0 47.16 -0.68Q46.25 -1.37 46.25 -2.51L46.25 -2.55L45.52 -2.55Q45.37 -2.09 44.84 -1.35Q44.31 -0.61 43.17 -0.04Q42.03 0.53 40.05 0.53ZM40.89 -3.34Q42.9 -3.34 44.18 -4.46Q45.45 -5.59 45.45 -7.45L45.45 -7.83L40.62 -7.83Q39.29 -7.83 38.53 -7.26Q37.77 -6.69 37.77 -5.66Q37.77 -4.64 38.57 -3.99Q39.37 -3.34 40.89 -3.34ZM61.26 0Q59.39 0 58.24 -1.16Q57.08 -2.32 57.08 -4.26L57.08 -14.9L52.36 -14.9L52.36 -18.85L57.08 -18.85L57.08 -24.7L61.86 -24.7L61.86 -18.85L67.03 -18.85L67.03 -14.9L61.86 -14.9L61.86 -5.09Q61.86 -3.95 62.93 -3.95L66.58 -3.95L66.58 0ZM78.51 0.53Q75.7 0.53 73.55 -0.66Q71.4 -1.86 70.2 -4.05Q69.01 -6.23 69.01 -9.2L69.01 -9.65Q69.01 -12.62 70.19 -14.8Q71.36 -16.99 73.49 -18.18Q75.62 -19.38 78.43 -19.38Q81.21 -19.38 83.26 -18.14Q85.31 -16.91 86.45 -14.72Q87.59 -12.54 87.59 -9.65L87.59 -8.02L73.87 -8.02Q73.95 -6.08 75.32 -4.86Q76.68 -3.65 78.66 -3.65Q80.67 -3.65 81.62 -4.52Q82.57 -5.4 83.07 -6.46L86.98 -4.41Q86.45 -3.42 85.44 -2.26Q84.44 -1.1 82.76 -0.28Q81.09 0.53 78.51 0.53ZM73.91 -11.59L82.73 -11.59Q82.57 -13.22 81.41 -14.21Q80.26 -15.2 78.39 -15.2Q76.46 -15.2 75.32 -14.21Q74.18 -13.22 73.91 -11.59Z" fill="#f0ebe2"/>
<path d="M95.87 0L89.11 -26.6L94.28 -26.6L99.9 -3.23L100.43 -3.23L106.06 -26.6L111.23 -26.6L104.46 0ZM118.52 0.53Q116.51 0.53 114.91 -0.17Q113.32 -0.87 112.39 -2.22Q111.45 -3.57 111.45 -5.51Q111.45 -7.45 112.39 -8.76Q113.32 -10.07 114.97 -10.73Q116.62 -11.4 118.75 -11.4L123.92 -11.4L123.92 -12.46Q123.92 -13.79 123.08 -14.65Q122.25 -15.5 120.42 -15.5Q118.64 -15.5 117.76 -14.69Q116.89 -13.87 116.62 -12.58L112.21 -14.06Q112.67 -15.5 113.68 -16.7Q114.68 -17.9 116.37 -18.64Q118.07 -19.38 120.5 -19.38Q124.22 -19.38 126.39 -17.52Q128.55 -15.66 128.55 -12.12L128.55 -5.09Q128.55 -3.95 129.62 -3.95L131.14 -3.95L131.14 0L127.95 0Q126.54 0 125.63 -0.68Q124.72 -1.37 124.72 -2.51L124.72 -2.55L123.99 -2.55Q123.84 -2.09 123.31 -1.35Q122.78 -0.61 121.64 -0.04Q120.5 0.53 118.52 0.53ZM119.36 -3.34Q121.37 -3.34 122.65 -4.46Q123.92 -5.59 123.92 -7.45L123.92 -7.83L119.09 -7.83Q117.76 -7.83 117 -7.26Q116.24 -6.69 116.24 -5.66Q116.24 -4.64 117.04 -3.99Q117.84 -3.34 119.36 -3.34ZM140.52 0.3Q138.32 0.3 136.67 -0.7Q135.01 -1.71 134.1 -3.5Q133.19 -5.28 133.19 -7.6L133.19 -18.85L137.98 -18.85L137.98 -7.98Q137.98 -5.85 139.02 -4.79Q140.07 -3.72 142.01 -3.72Q144.21 -3.72 145.43 -5.19Q146.64 -6.65 146.64 -9.27L146.64 -18.85L151.43 -18.85L151.43 0L146.72 0L146.72 -2.47L146.03 -2.47Q145.58 -1.52 144.32 -0.61Q143.07 0.3 140.52 0.3ZM155.99 0L155.99 -26.6L160.78 -26.6L160.78 0ZM172.56 0Q170.7 0 169.54 -1.16Q168.38 -2.32 168.38 -4.26L168.38 -14.9L163.67 -14.9L163.67 -18.85L168.38 -18.85L168.38 -24.7L173.17 -24.7L173.17 -18.85L178.33 -18.85L178.33 -14.9L173.17 -14.9L173.17 -5.09Q173.17 -3.95 174.23 -3.95L177.88 -3.95L177.88 0Z" fill="#e8a86a"/>
</g>
</svg>