<svg xmlns="http://www.w3.org/2000/svg" width="154.92249999999999" height="147.0925" viewBox="0 0 154.92249999999999 147.0925">
<g transform="translate(36.46124999999999 6.40625) scale(1.28125)">
<path d="M20 10 H50 A5 5 0 0 1 54 14 V50 A5 5 0 0 1 50 54 H14 A5 5 0 0 1 10 50 V20 Z" fill="none" stroke="#20211f" stroke-width="3" stroke-linejoin="round"></path>
<path d="M22 24 L31 33 L42 25 L46 42 M31 33 L27 46" fill="none" stroke="#3f6b7a" stroke-width="1.7" stroke-linecap="round" stroke-linejoin="round"></path><g fill="#3f6b7a"><path d="M31 27.6 l1.7 4.3 4.3 1.7 -4.3 1.7 -1.7 4.3 -1.7 -4.3 -4.3 -1.7 4.3 -1.7 z"></path><circle cx="22" cy="24" r="2.2"></circle><circle cx="42" cy="25" r="1.9"></circle><circle cx="46" cy="42" r="1.9"></circle><circle cx="27" cy="46" r="1.8"></circle></g>
</g>
<g transform="translate(6.40625 131.92625)">
<path d="M1.98 0L1.98 -21L10.62 -21Q12.6 -21 14.12 -20.2Q15.63 -19.41 16.49 -17.97Q17.34 -16.53 17.34 -14.55L17.34 -14.13Q17.34 -12.18 16.45 -10.72Q15.57 -9.27 14.06 -8.47Q12.54 -7.68 10.62 -7.68L5.94 -7.68L5.94 0ZM5.94 -11.28L10.23 -11.28Q11.64 -11.28 12.51 -12.06Q13.38 -12.84 13.38 -14.19L13.38 -14.49Q13.38 -15.84 12.51 -16.62Q11.64 -17.4 10.23 -17.4L5.94 -17.4ZM19.62 0L19.62 -21L23.4 -21L23.4 0ZM31.62 0.42Q30.03 0.42 28.77 -0.13Q27.51 -0.69 26.78 -1.75Q26.04 -2.82 26.04 -4.35Q26.04 -5.88 26.78 -6.91Q27.51 -7.95 28.82 -8.47Q30.12 -9 31.8 -9L35.88 -9L35.88 -9.84Q35.88 -10.89 35.22 -11.56Q34.56 -12.24 33.12 -12.24Q31.71 -12.24 31.02 -11.59Q30.33 -10.95 30.12 -9.93L26.64 -11.1Q27 -12.24 27.8 -13.18Q28.59 -14.13 29.92 -14.71Q31.26 -15.3 33.18 -15.3Q36.12 -15.3 37.83 -13.83Q39.54 -12.36 39.54 -9.57L39.54 -4.02Q39.54 -3.12 40.38 -3.12L41.58 -3.12L41.58 0L39.06 0Q37.95 0 37.23 -0.54Q36.51 -1.08 36.51 -1.98L36.51 -2.01L35.94 -2.01Q35.82 -1.65 35.4 -1.06Q34.98 -0.48 34.08 -0.03Q33.18 0.42 31.62 0.42ZM32.28 -2.64Q33.87 -2.64 34.88 -3.52Q35.88 -4.41 35.88 -5.88L35.88 -6.18L32.07 -6.18Q31.02 -6.18 30.42 -5.73Q29.82 -5.28 29.82 -4.47Q29.82 -3.66 30.45 -3.15Q31.08 -2.64 32.28 -2.64ZM48.36 0Q46.89 0 45.97 -0.91Q45.06 -1.83 45.06 -3.36L45.06 -11.76L41.34 -11.76L41.34 -14.88L45.06 -14.88L45.06 -19.5L48.84 -19.5L48.84 -14.88L52.92 -14.88L52.92 -11.76L48.84 -11.76L48.84 -4.02Q48.84 -3.12 49.68 -3.12L52.56 -3.12L52.56 0ZM61.98 0.42Q59.76 0.42 58.07 -0.52Q56.37 -1.47 55.43 -3.19Q54.48 -4.92 54.48 -7.26L54.48 -7.62Q54.48 -9.96 55.41 -11.68Q56.34 -13.41 58.02 -14.35Q59.7 -15.3 61.92 -15.3Q64.11 -15.3 65.73 -14.32Q67.35 -13.35 68.25 -11.62Q69.15 -9.9 69.15 -7.62L69.15 -6.33L58.32 -6.33Q58.38 -4.8 59.46 -3.84Q60.54 -2.88 62.1 -2.88Q63.69 -2.88 64.44 -3.57Q65.19 -4.26 65.58 -5.1L68.67 -3.48Q68.25 -2.7 67.46 -1.78Q66.66 -0.87 65.34 -0.22Q64.02 0.42 61.98 0.42ZM58.35 -9.15L65.31 -9.15Q65.19 -10.44 64.27 -11.22Q63.36 -12 61.89 -12Q60.36 -12 59.46 -11.22Q58.56 -10.44 58.35 -9.15Z" fill="#20211f"/>
<path d="M75.69 0L70.35 -21L74.43 -21L78.87 -2.55L79.29 -2.55L83.73 -21L87.81 -21L82.47 0ZM93.57 0.42Q91.98 0.42 90.72 -0.13Q89.46 -0.69 88.73 -1.75Q87.99 -2.82 87.99 -4.35Q87.99 -5.88 88.73 -6.91Q89.46 -7.95 90.77 -8.47Q92.07 -9 93.75 -9L97.83 -9L97.83 -9.84Q97.83 -10.89 97.17 -11.56Q96.51 -12.24 95.07 -12.24Q93.66 -12.24 92.97 -11.59Q92.28 -10.95 92.07 -9.93L88.59 -11.1Q88.95 -12.24 89.74 -13.18Q90.54 -14.13 91.88 -14.71Q93.21 -15.3 95.13 -15.3Q98.07 -15.3 99.78 -13.83Q101.49 -12.36 101.49 -9.57L101.49 -4.02Q101.49 -3.12 102.33 -3.12L103.53 -3.12L103.53 0L101.01 0Q99.9 0 99.18 -0.54Q98.46 -1.08 98.46 -1.98L98.46 -2.01L97.89 -2.01Q97.77 -1.65 97.35 -1.06Q96.93 -0.48 96.03 -0.03Q95.13 0.42 93.57 0.42ZM94.23 -2.64Q95.82 -2.64 96.82 -3.52Q97.83 -4.41 97.83 -5.88L97.83 -6.18L94.02 -6.18Q92.97 -6.18 92.37 -5.73Q91.77 -5.28 91.77 -4.47Q91.77 -3.66 92.4 -3.15Q93.03 -2.64 94.23 -2.64ZM110.94 0.24Q109.2 0.24 107.89 -0.55Q106.59 -1.35 105.87 -2.76Q105.15 -4.17 105.15 -6L105.15 -14.88L108.93 -14.88L108.93 -6.3Q108.93 -4.62 109.75 -3.78Q110.58 -2.94 112.11 -2.94Q113.85 -2.94 114.81 -4.09Q115.77 -5.25 115.77 -7.32L115.77 -14.88L119.55 -14.88L119.55 0L115.83 0L115.83 -1.95L115.29 -1.95Q114.93 -1.2 113.94 -0.48Q112.95 0.24 110.94 0.24ZM123.15 0L123.15 -21L126.93 -21L126.93 0ZM136.23 0Q134.76 0 133.84 -0.91Q132.93 -1.83 132.93 -3.36L132.93 -11.76L129.21 -11.76L129.21 -14.88L132.93 -14.88L132.93 -19.5L136.71 -19.5L136.71 -14.88L140.79 -14.88L140.79 -11.76L136.71 -11.76L136.71 -4.02Q136.71 -3.12 137.55 -3.12L140.43 -3.12L140.43 0Z" fill="#2c5160"/>
</g>
</svg>