<svg xmlns="http://www.w3.org/2000/svg" viewBox="0 0 64 64" fill="none" role="img" aria-label="PlateVault"><g transform="rotate(-9 32 32)"><path d="M20 10 H50 A5 5 0 0 1 54 14 V50 A5 5 0 0 1 50 54 H14 A5 5 0 0 1 10 50 V20 Z" fill="none" stroke="currentColor" stroke-width="3" stroke-linejoin="round"></path><path d="M22 24 L31 33 L42 25 L46 42 M31 33 L27 46" fill="none" stroke="var(--pv-acc, currentColor)" stroke-width="1.7" stroke-linecap="round" stroke-linejoin="round"></path><g fill="var(--pv-acc, currentColor)"><path d="M31 27.6 l1.7 4.3 4.3 1.7 -4.3 1.7 -1.7 4.3 -1.7 -4.3 -4.3 -1.7 4.3 -1.7 z"></path><circle cx="22" cy="24" r="2.2"></circle><circle cx="42" cy="25" r="1.9"></circle><circle cx="46" cy="42" r="1.9"></circle><circle cx="27" cy="46" r="1.8"></circle></g></g></svg>