<svg xmlns="http://www.w3.org/2000/svg" viewBox="0 0 64 64" role="img" aria-label="PlateVault"><g transform="rotate(-9 32 32)"><path d="M20 9 H49 A6 6 0 0 1 55 15 V49 A6 6 0 0 1 49 55 H15 A6 6 0 0 1 9 49 V20 Z" fill="none" stroke="currentColor" stroke-width="5" stroke-linejoin="round"></path><path d="M23 26 L32 35 L43 26 M32 35 L29 45" fill="none" stroke="currentColor" stroke-width="2.8" stroke-linecap="round" stroke-linejoin="round"></path><g fill="currentColor"><path d="M31 27.6 l1.9 5 5 1.9 -5 1.9 -1.9 5 -1.9 -5 -5 -1.9 5 -1.9 z"></path><circle cx="23" cy="26" r="3"></circle><circle cx="43" cy="26" r="3"></circle><circle cx="29" cy="45" r="2.6"></circle></g></g><style>g{color:#000}@media (prefers-color-scheme:dark){g{color:#fff}}</style></svg>